<svg width="79.077271" height="45.581299" viewBox="0 0 79.0773 45.5813" fill="none" xmlns="http://www.w3.org/2000/svg" xmlns:xlink="http://www.w3.org/1999/xlink">
	<desc>
			Created with Pixso.
	</desc>
	<defs/>
	<path id="XMLID 38" d="M10.9291 7.46411C10.2752 7.13574 6.20258 10.1833 5.85992 10.4868C4.35413 11.8181 2.31073 13.8066 4.04291 15.325C5.80652 16.8716 8.6861 17.3904 10.8474 18.6084C13.1077 19.8816 11.1115 22.2551 10.0599 23.6448C7.41608 27.1389 5.11646 30.864 3.15167 34.5154C2.62665 35.49 -1.14886 45.5042 0.34906 45.5813C-0.531128 45.5356 3.34656 36.8574 3.69708 36.2917C6.17902 32.3008 9.64178 28.552 13.202 24.8706C14.6402 23.3838 16.1224 21.4756 15.6855 19.7073C15.2375 17.8965 12.3438 16.958 9.91998 16.1204C6.71973 15.0137 4.96558 14.4006 6.6427 12.1199C7.0105 11.6216 11.2451 7.62134 10.9291 7.46411Z" fill="#ED165F" fill-opacity="1.000000" fill-rule="nonzero"/>
	<path id="XMLID 37" d="M8.12341 2.79272C8.21301 2.75342 8.26019 2.57275 8.31049 2.37769C8.36078 2.18286 8.41418 1.97681 8.51636 1.88721C8.79462 1.6438 9.04138 1.55103 9.30072 1.5415C9.56006 1.53198 9.83356 1.60449 10.1621 1.68921C10.511 1.77881 10.8034 1.93921 11.1036 2.09326C11.4038 2.24731 11.7135 2.39819 12.0955 2.46899C12.468 2.53809 12.7996 2.53638 13.1297 2.51758C13.4598 2.50024 13.7883 2.46582 14.1545 2.46729C14.7078 2.47046 15.3476 2.50513 15.8521 2.6875C16.3567 2.86963 16.7261 3.20142 16.7371 3.80176C16.7496 4.48389 16.3048 4.74487 15.783 4.93823C15.2611 5.13159 14.6638 5.25415 14.3762 5.65967C14.351 5.69434 15.0568 6.21606 15.7987 6.75049C16.5422 7.28491 17.3234 7.8335 17.4507 7.91992C18.158 8.39624 18.8952 8.78442 19.6859 9.08472C20.4749 9.38501 21.3159 9.59717 22.2275 9.72144C23.0763 9.83618 23.76 9.93677 24.6717 9.80933C25.1684 9.74023 26.0801 9.60352 26.8801 9.05176C27.2369 8.80664 27.5277 8.50635 27.7509 8.27832C28.2885 7.72827 28.507 7.34619 28.5604 7.3667C28.6233 7.39185 28.397 7.9751 27.9867 8.54712C27.8405 8.75 27.5309 9.18213 27.031 9.55469C26.1178 10.2339 25.0332 10.3706 24.1404 10.4822C22.8405 10.6455 21.7559 10.5388 21.0722 10.4351C19.7377 10.2354 18.4268 9.98853 15.7468 8.4624C14.0901 7.51929 12.4852 6.46289 10.728 5.81372C10.0002 5.54492 7.80432 4.7937 5.93225 3.84106C4.06024 2.88867 2.51038 1.73486 3.07312 0.661377C3.71283 -0.560059 4.64337 0.117432 5.5802 1.02905C6.51544 1.94067 7.45856 3.0835 8.12341 2.79272Z" fill="#ED165F" fill-opacity="1.000000" fill-rule="nonzero"/>
	<path id="XMLID 33" d="M27.9584 19.7483C28.2099 19.7483 28.4174 19.8 28.5777 19.9055C28.738 20.0107 28.8622 20.1301 28.9455 20.2622C29.0288 20.3958 29.0823 20.5356 29.1027 20.6819C29.1231 20.8296 29.1263 20.9521 29.1137 21.0498C29.0571 21.3154 28.9314 21.6516 28.7349 22.0588C28.5384 22.4658 28.3105 22.9138 28.0511 23.4043C27.7918 23.8948 27.5073 24.4165 27.1992 24.97C26.8911 25.5232 26.5972 26.0669 26.3159 26.5984C26.0361 27.1311 25.783 27.6499 25.5598 28.1528C25.335 28.6575 25.1747 29.1055 25.0757 29.4983C24.9924 29.8206 25.0018 29.9998 25.1071 30.0344C25.2124 30.0688 25.4042 29.9888 25.6855 29.7922C26.176 29.47 26.6946 29.0457 27.2401 28.5208C27.787 27.9956 28.3293 27.4346 28.8685 26.8389C29.4077 26.2432 29.9263 25.6411 30.423 25.0312C30.9197 24.4214 31.3615 23.8679 31.7465 23.3713C32.1317 22.8745 32.4507 22.4612 32.7022 22.1311C32.9537 21.8025 33.1014 21.6235 33.1439 21.5952C33.2005 21.5527 33.2806 21.5322 33.3859 21.5322C33.4913 21.5322 33.5887 21.5574 33.6799 21.6062C33.7711 21.6548 33.8402 21.7224 33.8905 21.8057C33.9392 21.8892 33.9361 21.9944 33.8795 22.1216C33.8371 22.2051 33.705 22.4265 33.4803 22.7834C33.2555 23.1401 32.9553 23.585 32.5765 24.1179C32.1976 24.6509 31.7575 25.2385 31.253 25.8831C30.7484 26.5276 30.2045 27.186 29.6246 27.8589C29.043 28.5317 28.4299 29.187 27.7855 29.8237C27.1411 30.4619 26.4887 31.0325 25.8301 31.5371C25.7186 31.6077 25.5535 31.7161 25.3366 31.8623C25.1197 32.01 24.8635 32.1499 24.5695 32.282C24.2756 32.4155 23.9597 32.5193 23.6233 32.5979C23.2869 32.675 22.9584 32.6924 22.6362 32.6499C22.3831 32.6074 22.1835 32.51 22.0373 32.356C21.8895 32.2019 21.7889 31.999 21.7324 31.7461C21.6758 31.4946 21.6616 31.2039 21.6899 30.8738C21.7182 30.5452 21.7748 30.1899 21.8581 29.8127C21.55 30.135 21.1712 30.4602 20.7233 30.7903C20.2753 31.1204 19.8084 31.4143 19.3259 31.6738C18.8417 31.9331 18.3734 32.1499 17.9175 32.3259C17.4617 32.5022 17.0734 32.5964 16.7512 32.6089C16.2466 32.623 15.8128 32.5525 15.4482 32.3984C15.0835 32.2444 14.7864 32.0383 14.5554 31.7791C14.3243 31.5198 14.1561 31.229 14.0508 30.9067C13.9455 30.5845 13.8936 30.2622 13.8936 29.9399C13.8936 29.4919 13.9644 28.9766 14.1042 28.3948C14.2441 27.8132 14.4516 27.2112 14.7236 26.5872C14.9971 25.9648 15.3397 25.3472 15.7531 24.7373C16.1665 24.1274 16.649 23.5598 17.2039 23.0349C17.7572 22.51 18.3765 22.0542 19.0634 21.6689C19.7503 21.2839 20.5142 21.0134 21.3551 20.8596C21.8738 20.762 22.3359 20.7336 22.7415 20.7761C23.1486 20.8186 23.5007 20.9128 23.8025 21.0591C24.1042 21.2068 24.3526 21.3987 24.5491 21.6375C24.7455 21.8765 24.8917 22.1279 24.9908 22.3936C25.1589 22.0713 25.3099 21.7915 25.4435 21.5527C25.5771 21.3154 25.6855 21.1331 25.7689 21.0056C25.9921 20.6143 26.2247 20.3298 26.462 20.1538C26.6993 19.9792 26.921 19.8599 27.1238 19.7969C27.3265 19.7341 27.5026 19.709 27.6487 19.7231C27.8012 19.7405 27.9034 19.7483 27.9584 19.7483ZM18.3953 30.825C18.6327 30.8108 18.9376 30.7166 19.3102 30.542C19.6811 30.3674 20.0662 30.1287 20.4655 29.8269C20.8647 29.5251 21.2529 29.1746 21.6318 28.7754C22.0106 28.376 22.3328 27.9453 22.5984 27.4832C22.8091 26.9504 23.0354 26.4111 23.2822 25.8643C23.5274 25.3171 23.7695 24.7922 24.0068 24.2876C24.0917 23.8679 24.098 23.5378 24.0272 23.3005C23.9565 23.0632 23.8559 22.8809 23.7223 22.7537C23.5887 22.6279 23.4394 22.5476 23.2696 22.5115C23.1014 22.4768 22.9678 22.4597 22.8704 22.4597C22.6189 22.4456 22.3171 22.554 21.9666 22.7849C21.616 23.0161 21.2451 23.3289 20.8521 23.7202C20.4592 24.1133 20.0678 24.5613 19.6748 25.0657C19.2819 25.5703 18.925 26.0891 18.6028 26.6204C18.2806 27.1531 18.0071 27.675 17.7839 28.1858C17.5591 28.6968 17.4224 29.1494 17.3737 29.5408C17.325 29.9336 17.3737 30.248 17.5214 30.4871C17.6707 30.7258 17.9615 30.8391 18.3953 30.825Z" fill="#ED165F" fill-opacity="1.000000" fill-rule="nonzero"/>
	<path id="XMLID 30" d="M37.7321 14.7246C37.9553 14.7104 38.1486 14.7561 38.3105 14.8613C38.4708 14.9668 38.5934 15.1035 38.6783 15.2717C38.7616 15.4399 38.7977 15.6252 38.7836 15.8281C38.7695 16.0308 38.7128 16.2163 38.6154 16.3845C38.0134 17.3513 37.3611 18.4624 36.66 19.7153C35.959 20.9695 35.2516 22.3103 34.5381 23.7407C35.3365 23.8523 36.1602 23.9373 37.0074 23.9922C37.8546 24.0488 38.6469 24.041 39.3824 23.9717C40.1181 23.9026 40.7594 23.7517 41.3064 23.5208C41.8534 23.2896 42.2307 22.9421 42.4413 22.4802C42.567 22.2146 42.7242 22.0383 42.9144 21.9551C43.103 21.8718 43.2743 21.8608 43.4299 21.9236C43.584 21.9866 43.7003 22.1028 43.7773 22.271C43.8543 22.4392 43.8512 22.6357 43.7663 22.8589C43.5132 23.4751 43.1501 23.9766 42.6739 24.3616C42.1976 24.7468 41.6616 25.0486 41.0659 25.2654C40.4702 25.4824 39.832 25.627 39.153 25.696C38.4739 25.7668 37.8012 25.7905 37.1347 25.77C36.4683 25.7495 35.8427 25.7009 35.2532 25.6223C34.6654 25.5452 34.153 25.4651 33.7191 25.3801C33.606 25.6191 33.4991 25.8533 33.3937 26.0842C33.2885 26.3154 33.18 26.5496 33.0684 26.7886C33.2083 27.3213 33.3592 27.9517 33.5211 28.6794C33.6814 29.4087 33.8119 30.2073 33.9093 31.075C34.0068 31.9441 34.0634 32.8621 34.0775 33.8289C34.0917 34.7954 34.0288 35.7842 33.8889 36.7917C33.6783 38.2488 33.3985 39.4858 33.048 40.5012C32.6974 41.5166 32.3123 42.3513 31.8926 43.002C31.473 43.6528 31.0376 44.1572 30.5896 44.5156C30.1417 44.8726 29.7141 45.1318 29.307 45.2937C28.8999 45.4541 28.5336 45.5452 28.2036 45.5671C27.8751 45.5876 27.6188 45.5845 27.4365 45.5562C26.8754 45.4729 26.3849 45.2544 25.9653 44.9055C25.5456 44.5549 25.2092 44.1069 24.9562 43.5601C24.7047 43.0129 24.5427 42.3906 24.472 41.6895C24.4028 40.9885 24.4374 40.2466 24.5773 39.4622C24.7455 38.5522 25.0112 37.5398 25.3759 36.4255C25.7405 35.311 26.1712 34.1448 26.6679 32.9265C27.1661 31.7068 27.7021 30.4714 28.2759 29.217C28.8496 27.9626 29.4312 26.7476 30.0206 25.5703C29.5302 25.0234 29.1089 24.7373 28.76 24.709C28.5368 24.6948 28.4377 24.5928 28.4661 24.4041C28.4943 24.2153 28.5918 24.0081 28.76 23.7847C28.9282 23.5601 29.1278 23.354 29.3589 23.1655C29.5899 22.9768 29.7896 22.8826 29.9577 22.8826C29.986 22.8826 30.1149 22.9109 30.3459 22.9658C30.577 23.0225 30.8741 23.0852 31.2388 23.1545C31.6584 22.3276 32.0624 21.5542 32.4475 20.8328C32.8326 20.1113 33.18 19.47 33.4881 18.9089C33.7961 18.3494 34.0555 17.8794 34.2661 17.5005C34.4767 17.1218 34.6166 16.8701 34.6858 16.7444C34.8682 16.4082 35.0992 16.1174 35.379 15.8721C35.6588 15.627 35.9496 15.4241 36.2513 15.2622C36.5532 15.1018 36.8361 14.9792 37.1017 14.8945C37.3674 14.8096 37.578 14.7529 37.7321 14.7246ZM32.666 36.3735C32.8059 34.9856 32.7996 33.6904 32.6456 32.4849C32.4915 31.2793 32.2526 30.1868 31.9304 29.2061C31.3834 30.4258 30.8615 31.6299 30.3648 32.8213C29.8666 34.0127 29.4265 35.1475 29.0413 36.2258C28.6562 37.3042 28.334 38.3037 28.0746 39.2217C27.8153 40.1396 27.6409 40.9382 27.5497 41.6172C27.4585 42.2961 27.4664 42.8354 27.5701 43.2346C27.6754 43.6338 27.9033 43.854 28.2538 43.8965C29.024 43.9812 29.6544 43.7988 30.1448 43.3511C30.6352 42.9031 31.0376 42.3025 31.3535 41.5544C31.6694 40.8047 31.9241 39.9714 32.1206 39.0535C32.3155 38.1355 32.4978 37.2412 32.666 36.3735Z" fill="#ED165F" fill-opacity="1.000000" fill-rule="nonzero"/>
	<path id="XMLID 26" d="M52.0232 19.7483C52.2747 19.7483 52.4822 19.8 52.6425 19.9055C52.8029 20.0107 52.927 20.1301 53.0103 20.2622C53.0936 20.3958 53.1471 20.5356 53.1675 20.6819C53.1879 20.8296 53.1911 20.9521 53.1785 21.0498C53.1219 21.3154 52.9962 21.6516 52.7997 22.0588C52.6032 22.4658 52.3753 22.9138 52.116 23.4043C51.8566 23.8948 51.5721 24.4165 51.264 24.97C50.9559 25.5232 50.662 26.0669 50.3807 26.5984C50.1009 27.1311 49.8478 27.6499 49.6246 28.1528C49.3998 28.6575 49.2395 29.1055 49.1405 29.4983C49.0572 29.8206 49.0666 29.9998 49.1719 30.0344C49.2772 30.0688 49.469 29.9888 49.7504 29.7922C50.2408 29.47 50.7595 29.0457 51.3049 28.5208C51.8519 27.9956 52.3942 27.4346 52.9333 26.8389C53.4725 26.2432 53.9911 25.6411 54.4879 25.0312C54.9846 24.4214 55.4263 23.8679 55.8113 23.3713C56.1965 22.8745 56.5155 22.4612 56.767 22.1311C57.0185 21.8025 57.1663 21.6235 57.2087 21.5952C57.2653 21.5527 57.3455 21.5322 57.4507 21.5322C57.5561 21.5322 57.6536 21.5574 57.7447 21.6062C57.8359 21.6548 57.905 21.7224 57.9553 21.8057C58.004 21.8892 58.0009 21.9944 57.9443 22.1216C57.9019 22.2051 57.7698 22.4265 57.5451 22.7834C57.3203 23.1401 57.0201 23.585 56.6413 24.1179C56.2625 24.6509 55.8223 25.2385 55.3178 25.8831C54.8132 26.5276 54.2693 27.186 53.6894 27.8589C53.1078 28.5317 52.4948 29.187 51.8503 29.8237C51.2059 30.4619 50.5535 31.0325 49.895 31.5371C49.7833 31.6077 49.6183 31.7161 49.4014 31.8623C49.1845 32.01 48.9283 32.1499 48.6343 32.282C48.3404 32.4155 48.0245 32.5193 47.6881 32.5979C47.3517 32.675 47.0232 32.6924 46.701 32.6499C46.4479 32.6074 46.2483 32.51 46.1021 32.356C45.9543 32.2019 45.8538 31.999 45.7972 31.7461C45.7406 31.4946 45.7264 31.2039 45.7548 30.8738C45.783 30.5452 45.8396 30.1899 45.9229 29.8127C45.6149 30.135 45.236 30.4602 44.7881 30.7903C44.3401 31.1204 43.8732 31.4143 43.3907 31.6738C42.9066 31.9331 42.4382 32.1499 41.9824 32.3259C41.5265 32.5022 41.1382 32.5964 40.816 32.6089C40.3115 32.623 39.8776 32.5525 39.513 32.3984C39.1483 32.2444 38.8513 32.0383 38.6202 31.7791C38.3891 31.5198 38.2209 31.229 38.1156 30.9067C38.0103 30.5845 37.9584 30.2622 37.9584 29.9399C37.9584 29.4919 38.0292 28.9766 38.1691 28.3948C38.309 27.8132 38.5164 27.2112 38.7884 26.5872C39.0619 25.9648 39.4045 25.3472 39.8179 24.7373C40.2313 24.1274 40.7139 23.5598 41.2687 23.0349C41.822 22.51 42.4413 22.0542 43.1282 21.6689C43.8151 21.2839 44.579 21.0134 45.4199 20.8596C45.9387 20.762 46.4008 20.7336 46.8063 20.7761C47.2134 20.8186 47.5655 20.9128 47.8673 21.0591C48.1691 21.2068 48.4174 21.3987 48.6139 21.6375C48.8104 21.8765 48.9565 22.1279 49.0556 22.3936C49.2238 22.0713 49.3747 21.7915 49.5083 21.5527C49.6419 21.3154 49.7504 21.1331 49.8337 21.0056C50.0569 20.6143 50.2895 20.3298 50.5269 20.1538C50.7642 19.9792 50.9858 19.8599 51.1886 19.7969C51.3914 19.7341 51.5674 19.709 51.7136 19.7231C51.866 19.7405 51.9682 19.7483 52.0232 19.7483ZM42.4601 30.825C42.6975 30.8108 43.0024 30.7166 43.375 30.542C43.7459 30.3674 44.131 30.1287 44.5303 29.8269C44.9295 29.5251 45.3177 29.1746 45.6966 28.7754C46.0754 28.376 46.3976 27.9453 46.6633 27.4832C46.8739 26.9504 47.1002 26.4111 47.347 25.8643C47.5922 25.3171 47.8343 24.7922 48.0717 24.2876C48.1565 23.8679 48.1628 23.5378 48.092 23.3005C48.0213 23.0632 47.9207 22.8809 47.7871 22.7537C47.6535 22.6279 47.5042 22.5476 47.3344 22.5115C47.1663 22.4768 47.0327 22.4597 46.9352 22.4597C46.6837 22.4456 46.3819 22.554 46.0314 22.7849C45.6808 23.0161 45.3099 23.3289 44.9169 23.7202C44.524 24.1133 44.1326 24.5613 43.7396 25.0657C43.3467 25.5703 42.9899 26.0891 42.6677 26.6204C42.3455 27.1531 42.0719 27.675 41.8488 28.1858C41.624 28.6968 41.4872 29.1494 41.4385 29.5408C41.3898 29.9336 41.4385 30.248 41.5862 30.4871C41.7355 30.7258 42.0264 30.8391 42.4601 30.825Z" fill="#ED165F" fill-opacity="1.000000" fill-rule="nonzero"/>
	<path id="XMLID 10" d="M57.3832 18.2139C57.6771 18.1997 57.9192 18.2627 58.1078 18.4026C58.2964 18.5425 58.3907 18.7734 58.3907 19.0957C58.3907 19.2498 58.3389 19.4666 58.2335 19.748C58.1282 20.0278 58.0198 20.3091 57.9081 20.5889C57.7542 20.9111 57.5922 21.2539 57.424 21.6184C57.5215 21.7725 57.7667 21.8464 58.1597 21.8386C58.551 21.8323 59.0006 21.7866 59.5051 21.7017C60.0097 21.6169 60.5284 21.5273 61.0597 21.4282C61.5925 21.3308 62.0468 21.2678 62.4256 21.2397C62.7195 21.2256 62.9443 21.2852 63.0984 21.4189C63.2524 21.5525 63.3577 21.7175 63.4143 21.9124C63.4709 22.1089 63.4803 22.3147 63.4457 22.5317C63.4112 22.7485 63.3436 22.9277 63.2461 23.0676C63.1895 23.1509 63.0496 23.3931 62.8264 23.7922C62.6017 24.1917 62.347 24.6758 62.0594 25.2432C61.7717 25.8105 61.4841 26.4172 61.198 27.0618C60.9104 27.7063 60.6824 28.3049 60.5143 28.8584C60.3461 29.4116 60.2659 29.8848 60.2722 30.2776C60.2785 30.6707 60.4373 30.8877 60.7453 30.9299C60.9135 30.9583 61.2012 30.8325 61.6067 30.5513C62.0138 30.2715 62.4854 29.8926 63.0261 29.4163C63.5652 28.9402 64.1358 28.3867 64.7394 27.7566C65.3414 27.1262 65.9277 26.4817 66.4951 25.8232C67.0626 25.1646 67.5812 24.5137 68.0496 23.8677C68.5197 23.2234 68.8875 22.6418 69.1531 22.123C69.2238 21.9832 69.3323 21.8889 69.4785 21.8386C69.6262 21.7898 69.7724 21.7866 69.9201 21.8274C70.0679 21.8684 70.1858 21.9612 70.2769 22.1011C70.3681 22.241 70.3932 22.4375 70.3508 22.689C70.3367 22.7595 70.2219 22.9719 70.0034 23.3301C69.7865 23.687 69.4957 24.1318 69.1311 24.6648C68.7664 25.1975 68.3326 25.7886 67.828 26.4409C67.3235 27.0933 66.7812 27.7471 66.1996 28.4058C65.618 29.0642 65.005 29.6946 64.3605 30.2966C63.7161 30.8987 63.0638 31.4141 62.4052 31.8418C61.7466 32.2693 61.0911 32.5835 60.4404 32.7878C59.7881 32.9907 59.1609 33.0222 58.5589 32.8823C57.9836 32.7424 57.5466 32.5112 57.2449 32.189C56.9431 31.8669 56.7513 31.4817 56.6664 31.0337C56.5831 30.5857 56.5831 30.0955 56.6664 29.5625C56.7497 29.0298 56.8802 28.4983 57.0547 27.9656C57.2291 27.4326 57.4366 26.9109 57.674 26.3999C57.9113 25.8892 58.1439 25.4302 58.3671 25.0229C58.5903 24.6174 58.7837 24.2842 58.9456 24.0249C59.1059 23.7656 59.2081 23.6084 59.2505 23.5518C59.4045 23.3552 59.4218 23.2092 59.3024 23.1101C59.1829 23.0127 59.0258 22.9985 58.8293 23.0676C58.6187 23.1509 58.3278 23.2217 57.9569 23.2783C57.5859 23.335 57.2134 23.313 56.8425 23.2153C56.4715 23.1179 56.1446 22.9075 55.8648 22.5852C55.585 22.2629 55.4373 21.7661 55.4231 21.0935C55.4089 20.8828 55.4404 20.6172 55.5174 20.2949C55.5944 19.9727 55.717 19.6616 55.8852 19.3596C56.0534 19.0579 56.2593 18.7954 56.5045 18.5723C56.756 18.3474 57.0468 18.228 57.3832 18.2139Z" fill="#ED165F" fill-opacity="1.000000" fill-rule="nonzero"/>
	<path id="XMLID 7" d="M70.9387 21.3655C71.1918 21.3796 71.4008 21.436 71.569 21.5337C71.7372 21.6311 71.8629 21.7505 71.9478 21.8904C72.0311 22.0303 72.0846 22.1733 72.105 22.321C72.1254 22.4688 72.1301 22.5913 72.116 22.689C72.0327 23.0676 71.8221 23.5754 71.4857 24.2119C71.1494 24.8501 70.7784 25.5293 70.3713 26.2507C69.9642 26.9722 69.5759 27.7046 69.205 28.4465C68.834 29.1899 68.5715 29.855 68.4175 30.4426C68.3326 30.7649 68.3782 30.9331 68.5542 30.9473C68.7287 30.9614 68.9566 30.8765 69.238 30.6958C69.7142 30.3735 70.2675 29.9429 70.8978 29.4038C71.5281 28.8647 72.1726 28.283 72.8312 27.6589C73.4898 27.0366 74.1374 26.408 74.7756 25.7776C75.4137 25.1472 75.9843 24.5688 76.4888 24.0437C76.9934 23.5188 77.41 23.085 77.7401 22.7407C78.0685 22.3982 78.2556 22.2126 78.2964 22.1843C78.353 22.1418 78.4332 22.1213 78.5385 22.1213C78.6439 22.1213 78.7413 22.1465 78.8325 22.1953C78.9236 22.2441 78.9928 22.3115 79.0431 22.395C79.0918 22.4797 79.0887 22.5835 79.0321 22.7109C78.9896 22.7942 78.8152 23.0237 78.5071 23.3945C78.199 23.7656 77.7997 24.2292 77.3093 24.7825C76.8189 25.3359 76.2515 25.9519 75.6071 26.6326C74.9626 27.3118 74.2899 27.9954 73.5888 28.6824C72.8878 29.3691 72.1726 30.0371 71.4448 30.6895C70.7155 31.3418 70.0223 31.9187 69.3637 32.4233C69.2663 32.4939 69.1044 32.6025 68.8796 32.7485C68.6548 32.8965 68.4002 33.0364 68.1125 33.1682C67.8249 33.302 67.5137 33.4104 67.1773 33.4937C66.8409 33.5769 66.5046 33.5989 66.1682 33.5566C65.6495 33.4858 65.3304 33.2029 65.2125 32.7046C65.093 32.208 65.1041 31.5981 65.244 30.8765C65.3839 30.155 65.618 29.3677 65.9481 28.5125C66.2766 27.6575 66.624 26.8386 66.9886 26.0542C67.3533 25.2698 67.6992 24.5688 68.0292 23.9526C68.3577 23.3364 68.5998 22.8948 68.7538 22.6292C68.9786 22.2502 69.2097 21.9705 69.447 21.7883C69.6844 21.606 69.906 21.4834 70.1088 21.4204C70.3115 21.3574 70.4876 21.3323 70.6338 21.3464C70.7815 21.3591 70.8837 21.3655 70.9387 21.3655ZM71.2122 17.835C71.338 17.582 71.4888 17.365 71.6633 17.1826C71.8378 17.0005 72.0233 16.8606 72.2197 16.7629C72.4162 16.6655 72.619 16.6091 72.8296 16.595C73.0402 16.5808 73.2352 16.6152 73.4175 16.7002C73.5998 16.7976 73.7507 16.9343 73.8702 17.1104C73.9896 17.2864 74.0698 17.4814 74.1122 17.6982C74.1547 17.9153 74.1578 18.1509 74.1232 18.4026C74.0887 18.6555 74.0069 18.907 73.8812 19.1584C73.7554 19.4116 73.6046 19.6284 73.4301 19.8108C73.254 19.9932 73.0685 20.1331 72.8737 20.2305C72.6771 20.3279 72.4744 20.3845 72.2637 20.3987C72.0531 20.4128 71.8566 20.3782 71.6759 20.2935C71.3112 20.1111 71.0833 19.7825 70.9921 19.3047C70.901 18.8301 70.9749 18.3396 71.2122 17.835Z" fill="#ED165F" fill-opacity="1.000000" fill-rule="nonzero"/>
</svg>
