<svg width="16.322144" height="14.234863" viewBox="0 0 16.3221 14.2349" fill="none" xmlns="http://www.w3.org/2000/svg" xmlns:xlink="http://www.w3.org/1999/xlink">
	<desc>
			Created with Pixso.
	</desc>
	<defs/>
	<path id="Vector" d="M15.0273 1.39307C14.1824 0.494751 13.023 0 11.7626 0C10.8204 0 9.95752 0.291992 9.19788 0.867798C8.81458 1.15845 8.46729 1.51404 8.16107 1.92908C7.85498 1.51416 7.50757 1.15845 7.12415 0.867798C6.36462 0.291992 5.50177 0 4.55957 0C3.29913 0 2.13965 0.494751 1.29474 1.39307C0.4599 2.28088 0 3.49377 0 4.80847C0 6.16162 0.514404 7.40027 1.61884 8.70667C2.60687 9.87524 4.02686 11.0615 5.67126 12.4352C6.23273 12.9043 6.8692 13.436 7.53009 14.0024C7.70465 14.1523 7.92871 14.2349 8.16107 14.2349C8.39331 14.2349 8.61749 14.1523 8.79181 14.0027C9.4527 13.4362 10.0895 12.9042 10.6512 12.4348C12.2954 11.0614 13.7154 9.87524 14.7034 8.70654C15.8079 7.40027 16.3221 6.16162 16.3221 4.80835C16.3221 3.49377 15.8622 2.28088 15.0273 1.39307Z" fill="#000000" fill-opacity="1.000000" fill-rule="nonzero"/>
</svg>
