<svg width="16.322144" height="16.000000" viewBox="0 0 16.3221 16" fill="none" xmlns="http://www.w3.org/2000/svg" xmlns:xlink="http://www.w3.org/1999/xlink">
	<desc>
			Created with Pixso.
	</desc>
	<defs/>
	<path id="Vector" d="M6.0625 0C7.67038 0 9.2124 0.626099 10.3494 1.7406C11.4863 2.8551 12.125 4.3667 12.125 5.94287C12.125 7.41486 11.5747 8.76801 10.67 9.8103L10.9218 10.0571L11.6587 10.0571L16.3221 14.6286L14.9231 16L10.2596 11.4286L10.2596 10.7063L10.0078 10.4594C8.90775 11.3799 7.50885 11.8856 6.0625 11.8857C4.45462 11.8857 2.9126 11.2596 1.77567 10.1451C0.638733 9.03058 0 7.51898 0 5.94287C0 4.3667 0.638733 2.8551 1.77567 1.7406C2.9126 0.626099 4.45462 0 6.0625 0ZM6.0625 1.82855C3.73077 1.82855 1.86539 3.65717 1.86539 5.94287C1.86539 8.22858 3.73077 10.0571 6.0625 10.0571C8.39426 10.0571 10.2596 8.22858 10.2596 5.94287C10.2596 3.65717 8.39426 1.82855 6.0625 1.82855Z" fill="#000000" fill-opacity="1.000000" fill-rule="nonzero"/>
</svg>
