<svg width="16.322266" height="16.000000" viewBox="0 0 16.3223 16" fill="none" xmlns="http://www.w3.org/2000/svg" xmlns:xlink="http://www.w3.org/1999/xlink">
	<desc>
			Created with Pixso.
	</desc>
	<defs/>
	<path id="Vector" d="M13.0578 12.8C12.1519 12.8 11.4256 13.512 11.4256 14.4C11.4256 14.8243 11.5976 15.2313 11.9037 15.5314C12.2097 15.8314 12.6249 16 13.0578 16C13.4907 16 13.9059 15.8314 14.212 15.5314C14.5181 15.2313 14.69 14.8243 14.69 14.4C14.69 13.9756 14.5181 13.5687 14.212 13.2686C13.9059 12.9686 13.4907 12.8 13.0578 12.8ZM0 0L0 1.59998L1.63223 1.59998L4.57022 7.672L3.46033 9.63202C3.33789 9.85602 3.26447 10.12 3.26447 10.4C3.26447 10.8243 3.43643 11.2313 3.74252 11.5314C4.04861 11.8314 4.46378 12 4.89667 12L14.69 12L14.69 10.4L5.23944 10.4C5.18533 10.4 5.13345 10.3789 5.09518 10.3414C5.05692 10.3039 5.03543 10.2531 5.03543 10.2C5.03543 10.16 5.04358 10.128 5.05991 10.104L5.7944 8.79999L11.8745 8.79999C12.4865 8.79999 13.0252 8.46399 13.3026 7.97601L16.2243 2.79999C16.2815 2.672 16.3223 2.53601 16.3223 2.40002C16.3223 2.18781 16.2363 1.98431 16.0832 1.83429C15.9302 1.68427 15.7226 1.59998 15.5062 1.59998L3.43585 1.59998L2.6687 0L0 0ZM4.89667 12.8C3.99078 12.8 3.26447 13.512 3.26447 14.4C3.26447 14.8243 3.43643 15.2313 3.74252 15.5314C4.04861 15.8314 4.46378 16 4.89667 16C5.32956 16 5.74475 15.8314 6.05084 15.5314C6.35693 15.2313 6.5289 14.8243 6.5289 14.4C6.5289 13.9756 6.35693 13.5687 6.05084 13.2686C5.74475 12.9686 5.32956 12.8 4.89667 12.8Z" fill="#000000" fill-opacity="1.000000" fill-rule="nonzero"/>
</svg>
